<svg xmlns="http://www.w3.org/2000/svg"
     width="1.66667in" height="1.66667in"
     viewBox="0 0 500 500">
  <path id="logo"
        fill="#0b6dc0" stroke="black" stroke-width="1"
        d="M 162.00,193.00
           C 162.00,193.00 163.28,181.00 163.28,181.00
             164.30,172.54 166.09,164.19 168.43,156.00
             175.80,130.14 191.71,106.42 212.00,89.00
             219.49,82.57 234.33,71.29 244.00,69.47
             258.01,66.82 266.55,73.77 278.00,80.28
             278.00,80.28 331.00,110.85 331.00,110.85
             337.11,114.34 354.90,123.89 359.00,128.00
             359.00,128.00 326.00,124.00 326.00,124.00
             302.28,123.96 281.61,128.38 260.00,138.31
             260.00,138.31 192.00,177.00 192.00,177.00
             184.71,181.19 169.28,191.27 162.00,193.00 Z
           M 198.00,94.00
           C 197.94,98.69 187.21,109.44 184.04,114.00
             175.27,126.60 167.21,143.17 163.15,158.00
             156.55,182.13 157.00,202.41 157.00,227.00
             157.00,227.00 157.00,297.00 157.00,297.00
             148.03,293.57 137.78,283.78 131.00,277.00
             109.42,255.42 95.19,227.29 91.00,197.00
             91.00,197.00 89.91,182.00 89.91,182.00
             89.27,172.63 88.49,165.23 94.44,157.04
             100.16,149.16 118.89,139.80 128.00,134.58
             128.00,134.58 198.00,94.00 198.00,94.00 Z
           M 256.00,145.00
           C 266.22,140.60 272.95,137.18 284.00,134.15
             313.42,126.10 343.23,127.36 372.00,137.34
             383.25,141.25 401.95,149.18 407.60,160.00
             410.41,165.39 410.99,173.00 411.00,179.00
             411.00,179.00 411.00,283.00 411.00,283.00
             407.73,280.50 403.18,265.89 400.75,261.00
             393.37,246.13 384.64,232.93 372.99,221.00
             355.92,203.53 337.82,194.04 317.00,182.15
             317.00,182.15 256.00,147.00 256.00,147.00
             256.00,147.00 256.00,145.00 256.00,145.00 Z
           M 343.00,203.00
           C 351.97,206.43 362.22,216.22 369.00,223.00
             390.58,244.58 404.81,272.71 409.00,303.00
             409.00,303.00 410.09,318.00 410.09,318.00
             410.69,326.74 411.49,334.17 406.24,341.99
             400.24,350.92 382.70,359.31 373.00,364.85
             373.00,364.85 301.00,406.00 301.00,406.00
             303.40,400.89 312.53,390.75 316.56,385.00
             324.28,373.99 330.70,360.74 335.00,348.00
             343.28,323.46 343.00,300.43 343.00,275.00
             343.00,275.00 343.00,203.00 343.00,203.00 Z
           M 89.00,217.00
           C 92.27,219.50 96.82,234.11 99.25,239.00
             106.59,253.78 115.41,267.16 127.01,279.00
             143.87,296.20 158.80,303.70 179.00,315.42
             179.00,315.42 244.00,353.00 244.00,353.00
             244.00,353.00 244.00,355.00 244.00,355.00
             233.78,359.40 227.05,362.82 216.00,365.85
             186.98,373.79 157.44,372.68 129.00,363.00
             116.49,358.74 97.04,350.74 91.53,338.00
             89.61,333.55 89.01,324.93 89.00,320.00
             89.00,320.00 89.00,217.00 89.00,217.00 Z
           M 141.00,372.00
           C 141.00,372.00 174.00,376.00 174.00,376.00
             197.72,376.04 218.39,371.62 240.00,361.69
             240.00,361.69 308.00,323.00 308.00,323.00
             314.82,319.08 331.51,308.54 338.00,307.00
             338.00,307.00 336.72,319.00 336.72,319.00
             335.70,327.46 333.91,335.81 331.57,344.00
             324.24,369.71 308.18,393.67 288.00,411.00
             280.51,417.43 265.67,428.71 256.00,430.53
             242.01,433.17 233.44,426.24 222.00,419.72
             222.00,419.72 166.00,387.40 166.00,387.40
             159.90,383.78 145.29,376.29 141.00,372.00 Z" />
</svg>
