<svg xmlns="http://www.w3.org/2000/svg"
     viewBox="0 0 2000 500">
  <path id="heading"
        fill="#0b6dc0" stroke="black" stroke-width="1"
        d="M 774.00,90.00
           C 774.00,90.00 814.00,84.00 814.00,84.00
             814.00,84.00 814.00,152.00 814.00,152.00
             814.00,152.00 898.00,152.00 898.00,152.00
             898.00,152.00 898.00,185.00 898.00,185.00
             898.00,185.00 814.00,185.00 814.00,185.00
             814.00,185.00 814.00,258.00 814.00,258.00
             814.00,258.00 814.00,283.00 814.00,283.00
             814.00,283.00 814.91,294.00 814.91,294.00
             814.91,294.00 815.43,305.00 815.43,305.00
             817.61,320.19 822.74,335.21 839.00,340.23
             843.97,341.76 847.88,341.99 853.00,342.00
             862.81,342.02 867.23,342.56 877.00,340.11
             877.00,340.11 899.00,333.00 899.00,333.00
             899.00,333.00 907.00,367.00 907.00,367.00
             907.00,367.00 886.00,374.12 886.00,374.12
             867.47,379.00 860.55,378.03 842.00,378.00
             821.19,377.97 800.40,370.50 788.04,353.00
             771.95,330.22 774.00,292.86 774.00,266.00
             774.00,266.00 774.00,90.00 774.00,90.00 Z
           M 565.00,189.00
           C 565.00,189.00 562.04,166.00 562.04,166.00
             561.64,163.32 560.30,157.98 562.04,155.70
             563.71,153.39 571.13,151.83 574.00,151.13
             582.93,148.95 600.99,146.04 610.00,146.00
             610.00,146.00 635.00,146.00 635.00,146.00
             657.95,146.04 682.70,155.01 696.51,174.00
             706.81,188.16 710.97,210.72 711.00,228.00
             711.00,228.00 711.00,370.00 711.00,370.00
             693.96,373.10 658.66,377.97 642.00,378.00
             642.00,378.00 612.00,378.00 612.00,378.00
             594.33,377.79 570.18,370.86 557.01,358.83
             537.15,340.68 532.45,302.92 543.31,279.00
             547.88,268.94 553.99,262.03 563.00,255.72
             585.93,239.67 614.12,238.69 641.00,239.00
             647.97,239.09 664.38,241.82 671.00,244.00
             671.00,233.17 671.66,224.67 668.84,214.00
             667.51,208.94 665.75,204.42 662.91,200.00
             649.78,179.59 630.98,180.97 610.00,181.00
             602.02,181.01 590.85,182.69 583.00,184.42
             583.00,184.42 565.00,189.00 565.00,189.00 Z
           M 1019.00,146.21
           C 1019.00,146.21 1042.00,146.21 1042.00,146.21
             1069.49,146.04 1096.42,161.00 1113.54,182.00
             1127.05,198.57 1135.80,223.80 1137.94,245.00
             1137.94,245.00 1137.94,254.00 1137.94,254.00
             1137.94,254.00 1138.92,263.00 1138.92,263.00
             1138.92,263.00 1137.96,271.00 1137.96,271.00
             1137.96,271.00 1137.96,280.00 1137.96,280.00
             1134.84,311.27 1120.11,343.14 1094.00,361.56
             1079.73,371.63 1059.56,378.97 1042.00,379.00
             1042.00,379.00 1025.00,379.00 1025.00,379.00
             1017.94,378.91 1009.79,377.08 1003.00,375.14
             954.24,361.17 930.07,312.93 930.00,265.00
             929.93,223.23 944.25,179.60 983.00,158.31
             995.69,151.34 1004.87,148.74 1019.00,146.21 Z
           M 1638.00,146.21
           C 1638.00,146.21 1661.00,146.21 1661.00,146.21
             1688.49,146.04 1715.42,161.00 1732.54,182.00
             1746.05,198.57 1754.80,223.80 1756.94,245.00
             1756.94,245.00 1756.94,254.00 1756.94,254.00
             1756.94,254.00 1757.92,263.00 1757.92,263.00
             1757.92,263.00 1756.96,271.00 1756.96,271.00
             1756.96,271.00 1756.96,280.00 1756.96,280.00
             1753.84,311.27 1739.11,343.14 1713.00,361.56
             1698.73,371.63 1678.56,378.97 1661.00,379.00
             1661.00,379.00 1644.00,379.00 1644.00,379.00
             1636.94,378.91 1628.79,377.08 1622.00,375.14
             1573.24,361.17 1549.07,312.93 1549.00,265.00
             1548.93,223.23 1563.25,179.60 1602.00,158.31
             1614.69,151.34 1623.87,148.74 1638.00,146.21 Z
           M 1797.00,367.00
           C 1797.17,359.09 1799.84,348.88 1801.58,341.00
             1802.05,338.84 1802.69,333.29 1804.58,332.36
             1806.19,331.13 1808.40,332.06 1810.00,332.36
             1810.00,332.36 1824.00,337.33 1824.00,337.33
             1843.27,343.75 1852.34,343.15 1872.00,343.00
             1889.71,342.87 1914.01,337.79 1912.05,314.91
             1911.75,311.48 1911.16,309.13 1909.67,306.00
             1904.41,294.91 1888.89,287.31 1878.00,282.58
             1855.88,272.96 1824.12,263.80 1809.78,244.00
             1796.32,225.42 1796.59,193.73 1809.78,175.00
             1817.78,163.65 1829.09,156.13 1842.00,151.44
             1863.99,143.44 1897.21,144.89 1920.00,149.45
             1920.00,149.45 1942.00,155.00 1942.00,155.00
             1942.00,155.00 1934.00,190.00 1934.00,190.00
             1934.00,190.00 1918.00,184.43 1918.00,184.43
             1903.30,180.23 1879.80,177.83 1865.00,181.63
             1853.15,184.68 1841.58,191.51 1840.76,205.00
             1839.74,221.66 1852.75,230.32 1866.00,236.74
             1888.61,247.69 1919.74,254.08 1937.83,272.17
             1952.75,287.09 1953.22,302.45 1953.00,322.00
             1952.91,329.26 1950.55,338.62 1947.10,345.00
             1940.96,356.36 1929.89,365.07 1918.00,369.80
             1906.16,374.50 1890.75,377.98 1878.00,378.00
             1878.00,378.00 1847.00,378.00 1847.00,378.00
             1837.26,377.88 1822.36,374.87 1813.00,371.98
             1813.00,371.98 1797.00,367.00 1797.00,367.00 Z
           M 1195.00,157.00
           C 1195.00,157.00 1237.00,149.28 1237.00,149.28
             1256.73,146.62 1271.36,146.97 1291.00,147.00
             1307.76,147.03 1332.74,154.03 1342.00,169.00
             1357.63,157.03 1386.22,147.03 1406.00,147.00
             1428.68,146.96 1448.99,146.56 1468.00,161.52
             1489.54,178.45 1493.34,203.50 1495.09,229.00
             1495.09,229.00 1496.00,241.00 1496.00,241.00
             1496.00,241.00 1496.00,373.00 1496.00,373.00
             1496.00,373.00 1455.00,373.00 1455.00,373.00
             1455.00,373.00 1455.00,266.00 1455.00,266.00
             1455.00,245.97 1456.41,221.27 1447.19,203.00
             1436.98,182.76 1419.54,182.78 1400.00,183.00
             1393.89,183.08 1386.80,184.42 1381.00,186.35
             1376.13,187.98 1363.32,192.84 1360.90,197.18
             1359.28,200.07 1361.34,205.72 1361.92,209.00
             1363.36,217.19 1364.99,226.74 1365.00,235.00
             1365.00,235.00 1365.00,373.00 1365.00,373.00
             1365.00,373.00 1325.00,373.00 1325.00,373.00
             1325.00,373.00 1325.00,266.00 1325.00,266.00
             1325.00,246.31 1325.35,219.55 1315.69,202.00
             1304.26,181.25 1286.19,182.91 1266.00,183.00
             1266.00,183.00 1245.00,185.08 1245.00,185.08
             1242.65,185.47 1238.27,185.89 1236.60,187.59
             1234.67,189.56 1235.01,193.43 1235.00,196.00
             1235.00,196.00 1235.00,373.00 1235.00,373.00
             1235.00,373.00 1195.00,373.00 1195.00,373.00
             1195.00,373.00 1195.00,157.00 1195.00,157.00 Z
           M 1024.00,182.14
           C 987.91,188.28 975.19,220.47 972.91,253.00
             972.60,257.39 971.84,258.95 972.04,264.00
             972.48,275.34 973.94,287.09 977.14,298.00
             984.11,321.73 1002.82,342.69 1029.00,343.00
             1029.00,343.00 1040.00,343.00 1040.00,343.00
             1076.88,342.56 1095.95,302.27 1096.00,270.00
             1096.00,270.00 1096.00,255.00 1096.00,255.00
             1095.96,227.08 1082.46,193.90 1054.00,184.52
             1047.78,182.47 1044.47,182.01 1038.00,182.14
             1038.00,182.14 1024.00,182.14 1024.00,182.14 Z
           M 1643.00,182.14
           C 1606.91,188.28 1594.19,220.47 1591.91,253.00
             1591.60,257.39 1590.84,258.95 1591.04,264.00
             1591.48,275.34 1592.94,287.09 1596.14,298.00
             1603.11,321.73 1621.82,342.69 1648.00,343.00
             1648.00,343.00 1659.00,343.00 1659.00,343.00
             1695.88,342.56 1714.95,302.27 1715.00,270.00
             1715.00,270.00 1715.00,255.00 1715.00,255.00
             1714.96,227.08 1701.46,193.90 1673.00,184.52
             1666.78,182.47 1663.47,182.01 1657.00,182.14
             1657.00,182.14 1643.00,182.14 1643.00,182.14 Z
           M 671.00,342.00
           C 671.00,342.00 671.00,284.00 671.00,284.00
             671.00,282.00 671.26,278.33 670.01,276.72
             668.81,275.18 665.83,274.58 664.00,274.13
             658.25,272.71 651.91,272.01 646.00,272.00
             629.31,271.97 609.90,270.54 595.00,279.48
             588.43,283.42 583.24,288.79 580.47,296.00
             578.67,300.69 578.95,305.08 579.00,310.00
             579.12,319.95 582.69,329.39 591.00,335.37
             601.45,342.88 618.44,344.72 631.00,344.13
             631.00,344.13 651.00,344.13 651.00,344.13
             651.00,344.13 671.00,342.00 671.00,342.00 Z" />
  <path id="logo"
        fill="#0b6dc0" stroke="black" stroke-width="1"
        d="M 161.00,192.00
           C 161.00,192.00 162.28,180.00 162.28,180.00
             163.30,171.54 165.09,163.19 167.43,155.00
             174.80,129.14 190.71,105.42 211.00,88.00
             218.49,81.57 233.33,70.29 243.00,68.47
             257.01,65.82 265.55,72.77 277.00,79.28
             277.00,79.28 330.00,109.85 330.00,109.85
             336.11,113.34 353.90,122.89 358.00,127.00
             358.00,127.00 325.00,123.00 325.00,123.00
             301.28,122.96 280.61,127.38 259.00,137.31
             259.00,137.31 191.00,176.00 191.00,176.00
             183.71,180.19 168.28,190.27 161.00,192.00 Z
           M 197.00,93.00
           C 196.94,97.69 186.21,108.44 183.04,113.00
             174.27,125.60 166.21,142.17 162.15,157.00
             155.55,181.13 156.00,201.41 156.00,226.00
             156.00,226.00 156.00,296.00 156.00,296.00
             147.03,292.57 136.78,282.78 130.00,276.00
             108.42,254.42 94.19,226.29 90.00,196.00
             90.00,196.00 88.91,181.00 88.91,181.00
             88.27,171.63 87.49,164.23 93.44,156.04
             99.16,148.16 117.89,138.80 127.00,133.58
             127.00,133.58 197.00,93.00 197.00,93.00 Z
           M 255.00,144.00
           C 265.22,139.60 271.95,136.18 283.00,133.15
             312.42,125.10 342.23,126.36 371.00,136.34
             382.25,140.25 400.95,148.18 406.60,159.00
             409.41,164.39 409.99,172.00 410.00,178.00
             410.00,178.00 410.00,282.00 410.00,282.00
             406.73,279.50 402.18,264.89 399.75,260.00
             392.37,245.13 383.64,231.93 371.99,220.00
             354.92,202.53 336.82,193.04 316.00,181.15
             316.00,181.15 255.00,146.00 255.00,146.00
             255.00,146.00 255.00,144.00 255.00,144.00 Z
           M 342.00,202.00
           C 350.97,205.43 361.22,215.22 368.00,222.00
             389.58,243.58 403.81,271.71 408.00,302.00
             408.00,302.00 409.09,317.00 409.09,317.00
             409.69,325.74 410.49,333.17 405.24,340.99
             399.24,349.92 381.70,358.31 372.00,363.85
             372.00,363.85 300.00,405.00 300.00,405.00
             302.40,399.89 311.53,389.75 315.56,384.00
             323.28,372.99 329.70,359.74 334.00,347.00
             342.28,322.46 342.00,299.43 342.00,274.00
             342.00,274.00 342.00,202.00 342.00,202.00 Z
           M 88.00,216.00
           C 91.27,218.50 95.82,233.11 98.25,238.00
             105.59,252.78 114.41,266.16 126.01,278.00
             142.87,295.20 157.80,302.70 178.00,314.42
             178.00,314.42 243.00,352.00 243.00,352.00
             243.00,352.00 243.00,354.00 243.00,354.00
             232.78,358.40 226.05,361.82 215.00,364.85
             185.98,372.79 156.44,371.68 128.00,362.00
             115.49,357.74 96.04,349.74 90.53,337.00
             88.61,332.55 88.01,323.93 88.00,319.00
             88.00,319.00 88.00,216.00 88.00,216.00 Z
           M 140.00,371.00
           C 140.00,371.00 173.00,375.00 173.00,375.00
             196.72,375.04 217.39,370.62 239.00,360.69
             239.00,360.69 307.00,322.00 307.00,322.00
             313.82,318.08 330.51,307.54 337.00,306.00
             337.00,306.00 335.72,318.00 335.72,318.00
             334.70,326.46 332.91,334.81 330.57,343.00
             323.24,368.71 307.18,392.67 287.00,410.00
             279.51,416.43 264.67,427.71 255.00,429.53
             241.01,432.17 232.44,425.24 221.00,418.72
             221.00,418.72 165.00,386.40 165.00,386.40
             158.90,382.78 144.29,375.29 140.00,371.00 Z" />
</svg>
